<svg viewBox="-200 -200 600 600" xmlns="http://www.w3.org/2000/svg">
  <ellipse cx="61" cy="31" rx="121" ry="126" fill="#79719E" opacity="0.41407695080280893"  transform="rotate(29 61 31)"/>
  <ellipse cx="68" cy="153" rx="38" ry="37" fill="#F2B087" opacity="0.543217143116074"  transform="rotate(134 68 153)"/>
  <ellipse cx="160" cy="139" rx="127" ry="144" fill="#17800A" opacity="0.36200226697254334"  transform="rotate(165 160 139)"/>
  <ellipse cx="124" cy="53" rx="150" ry="164" fill="#AC88C7" opacity="0.5997307460175859"  transform="rotate(27 124 53)"/>
  <ellipse cx="26" cy="95" rx="80" ry="43" fill="#674EA1" opacity="0.29647720245913495"  transform="rotate(179 26 95)"/>
  <ellipse cx="157" cy="153" rx="106" ry="24" fill="#5B68F1" opacity="0.7637390650713899"  transform="rotate(114 157 153)"/>
  <ellipse cx="163" cy="171" rx="115" ry="59" fill="#9D643F" opacity="0.5468177495585419"  transform="rotate(116 163 171)"/>
  <ellipse cx="28" cy="28" rx="168" ry="162" fill="#4DFC67" opacity="0.8934551087789911"  transform="rotate(129 28 28)"/>
  <ellipse cx="47" cy="40" rx="174" ry="51" fill="#D9F2D9" opacity="0.7259573254125716"  transform="rotate(134 47 40)"/>
  <ellipse cx="166" cy="64" rx="154" ry="155" fill="#CE8968" opacity="0.7218222571223896"  transform="rotate(57 166 64)"/>
  <ellipse cx="132" cy="149" rx="123" ry="144" fill="#3C1D17" opacity="0.10089356928501979"  transform="rotate(75 132 149)"/>
  <ellipse cx="135" cy="162" rx="148" ry="124" fill="#0C7F62" opacity="0.6289398966961959"  transform="rotate(125 135 162)"/>
  <ellipse cx="66" cy="89" rx="168" ry="112" fill="#6326F4" opacity="0.19528558321555167"  transform="rotate(50 66 89)"/>
  <ellipse cx="145" cy="149" rx="63" ry="21" fill="#74DCDA" opacity="0.6546287373217824"  transform="rotate(9 145 149)"/>
  <ellipse cx="73" cy="83" rx="81" ry="67" fill="#9BA9D2" opacity="0.3094752657991748"  transform="rotate(48 73 83)"/>
  <ellipse cx="110" cy="167" rx="91" ry="115" fill="#A0B108" opacity="0.1167095807943113"  transform="rotate(34 110 167)"/>
  <ellipse cx="43" cy="53" rx="49" ry="114" fill="#ED95AC" opacity="0.6074775170297733"  transform="rotate(32 43 53)"/>
  <ellipse cx="53" cy="58" rx="152" ry="52" fill="#133174" opacity="0.9602275609065453"  transform="rotate(19 53 58)"/>
  <ellipse cx="162" cy="47" rx="102" ry="77" fill="#D0F0AA" opacity="0.9816466819027397"  transform="rotate(88 162 47)"/>
  <ellipse cx="45" cy="56" rx="27" ry="66" fill="#A42D73" opacity="0.5988143813887725"  transform="rotate(164 45 56)"/>
</svg>